<svg xmlns="http://www.w3.org/2000/svg" viewBox="0 0 320 100" fill="none">
  <rect width="320" height="100" rx="12" fill="#0a0b0f"/>
  <rect x="24" y="12" width="272" height="40" rx="8" fill="#13141a" opacity="0.6"/>
  <path d="M32 72 L118 72 C128 72 138 58 160 58 C182 58 192 72 208 72 L288 72 Q304 72 304 88 L304 100 L16 100 L16 88 Q16 72 32 72 Z" fill="#13141a" stroke="#00e5ff" stroke-opacity="0.5" stroke-width="1"/>
  <text x="160" y="48" text-anchor="middle" fill="#00e5ff" fill-opacity="0.7" font-size="8" font-weight="700" letter-spacing="2">LIVE</text>
  <circle cx="160" cy="58" r="16" fill="none" stroke="#f97316" stroke-opacity="0.3"/>
  <circle cx="160" cy="58" r="12" fill="#ea580c"/>
  <circle cx="160" cy="58" r="4" fill="#fff"/>
  <circle cx="56" cy="82" r="3" fill="#fff"/>
  <circle cx="96" cy="82" r="3" fill="#64748b"/>
  <circle cx="224" cy="82" r="3" fill="#64748b"/>
  <circle cx="264" cy="82" r="3" fill="#64748b"/>
</svg>
